<mxfile host="app.diagrams.net" modified="2023-08-20T22:18:31.857Z" agent="Mozilla/5.0 (Windows NT 10.0; Win64; x64; rv:109.0) Gecko/20100101 Firefox/116.0" version="21.6.6" etag="n-q_jDLh0zTgjUvT2GL0" type="github">
  <diagram name="Page-1" id="uODtlDqTCRLKGYfM8dI1">
    <mxGraphModel>
      <root>
        <mxCell id="0" />
        <mxCell id="1" parent="0" />
      </root>
    </mxGraphModel>
  </diagram>
</mxfile>
